<svg xmlns="http://www.w3.org/2000/svg" xml:space="preserve" width="2000" height="1500" data-id="lg_XD2pVFiXVqikLS3gqD" data-version="1" viewBox="0 0 2000 1500"><path fill="#fff" stroke="transparent" d="M0 0h2000v1500H0z"/><g data-padding="20"><g transform="translate(-2485.915 -1880.43)scale(3.35582)"><rect width="525.832" height="155.813" x="441.477" y="395.973" fill="#155bd5" rx="0" ry="0" transform="matrix(.81 0 0 .81 468.21 400)"/><g transform="translate(467.97 400.02)"><filter id="a" width="140%" height="140%" x="-20%" y="-20%"><feGaussianBlur in="SourceAlpha"/><feOffset result="oBlur"/><feFlood flood-color="#f75cff" flood-opacity="1"/><feComposite in2="oBlur" operator="in"/><feMerge><feMergeNode/><feMergeNode in="SourceGraphic"/></feMerge></filter><g filter="url(#a)"><rect width="234.175" height="100.57" x="453.471" y="333.558" fill="none" rx="0" ry="0"/><path fill="#fff" d="M477.608 411.303h-15.58v-55.63h15.58q5.32 0 8.44 2.1 3.12 2.11 4.48 5.1 1.36 3 1.36 5.66 0 3.03-1.39 5.53t-3.74 4.11q4.51 2.04 7.32 6.12t2.81 9.27q0 4.39-2.19 8.47t-6.49 6.67q-4.3 2.6-10.6 2.6m-8.53-29.67v23.36h8.04q4.57 0 7.35-1.79t4.08-4.51 1.3-5.38q0-2.59-1.24-5.31-1.23-2.72-4.02-4.55-2.78-1.82-7.47-1.82Zm0-19.65v13.72h7.97q3.65 0 5.91-1.76 2.25-1.76 2.25-5.04 0-3.4-2.22-5.16-2.23-1.76-5.69-1.76Zm54.88 49.32h-15.57v-55.63h15.57q5.32 0 8.44 2.1 3.12 2.11 4.48 5.1 1.36 3 1.36 5.66 0 3.03-1.39 5.53t-3.74 4.11q4.51 2.04 7.33 6.12 2.81 4.08 2.81 9.27 0 4.39-2.2 8.47-2.19 4.08-6.49 6.67-4.29 2.6-10.6 2.6m-8.53-29.67v23.36h8.04q4.57 0 7.35-1.79 2.79-1.79 4.08-4.51 1.3-2.72 1.3-5.38 0-2.59-1.23-5.31-1.24-2.72-4.02-4.55-2.78-1.82-7.48-1.82Zm0-19.65v13.72h7.98q3.64 0 5.9-1.76t2.26-5.04q0-3.4-2.23-5.16-2.22-1.76-5.68-1.76Zm46.54 49.32h-7.04v-55.63h13.97q5.25 0 9.02 2.1 3.77 2.11 5.84 5.54t2.07 7.51q0 4.57-2.59 8.22-2.6 3.64-7.11 5.37l18.66 26.89h-8.22l-17.67-25.59h-6.93Zm0-49.32v17.8h6.93q3.58 0 5.84-1.33 2.25-1.33 3.33-3.4 1.09-2.07 1.09-4.23 0-3.9-2.82-6.37-2.81-2.47-7.44-2.47Zm48.77 49.32h-7.05v-55.63h7.05Zm26.33-49.32h-14.84v-6.31h36.72v6.31h-14.84v49.32h-7.04Zm40.42 49.32h-7.05v-55.63h7.05Z"/></g></g></g><path fill="transparent" stroke="transparent" stroke-width="3.521" d="M250 528.169h1500v443.662H250z"/></g></svg>